<?xml version="1.0" encoding="utf-8"?>
<!-- Generator: Adobe Illustrator 25.3.1, SVG Export Plug-In . SVG Version: 6.00 Build 0)  -->
<svg version="1.1" id="Layer_1" xmlns="http://www.w3.org/2000/svg" xmlns:xlink="http://www.w3.org/1999/xlink" x="0px" y="0px"
	 viewBox="0 0 1020 561.1" style="enable-background:new 0 0 1020 561.1;" xml:space="preserve">
<style type="text/css">
	.st0{fill:#14B8A6;}
	.st1{fill:none;}
	.st2{fill:#231F20;}
	.st3{fill:#FFFFFF;}
</style>
<g>

		<rect x="81.21" y="254.71" transform="matrix(0.7881 -0.6156 0.6156 0.7881 -73.4591 316.7217)" class="st0" width="684.14" height="20.68"/>

		<rect x="120.27" y="223.03" transform="matrix(0.9253 -0.3792 0.3792 0.9253 -50.2076 211.837)" class="st0" width="784.71" height="20.68"/>

		<rect x="193.82" y="254.71" transform="matrix(0.9976 -0.069 0.069 0.9976 -16.978 38.6791)" class="st0" width="714.94" height="20.68"/>

		<rect x="419.04" y="80.85" transform="matrix(0.3981 -0.9173 0.9173 0.3981 1.1238 562.6993)" class="st0" width="20.68" height="399.29"/>

		<rect x="415" y="122.21" transform="matrix(0.8236 -0.5672 0.5672 0.8236 -89.3366 292.381)" class="st0" width="20.68" height="335.19"/>
	<rect x="408.83" y="109.3" class="st0" width="20.68" height="335.35"/>

		<rect x="184.07" y="266.64" transform="matrix(0.5003 -0.8658 0.8658 0.5003 -34.0962 494.874)" class="st0" width="455.25" height="20.68"/>
</g>
<g>
	<path class="st0" d="M837.93,409.53v1.68h-8.81v22.46h-1.83v-22.46h-8.81v-1.68H837.93z"/>
	<path class="st0" d="M865,409.53v24.14h-1.76v-18l0.22-4.39h-0.04l-8.81,22.38h-1.68l-8.81-22.38h-0.04l0.22,4.39v18h-1.76v-24.14
		h2.74l7.28,18.29l1.21,3.69h0.04l1.17-3.66l7.28-18.32H865z"/>
</g>
<g>
	<rect x="1118.2" y="258.63" transform="matrix(0.7881 -0.6156 0.6156 0.7881 96.909 804.7426)" width="198.13" height="5.99"/>
	<rect x="1129.51" y="249.45" transform="matrix(0.9253 -0.3792 0.3792 0.9253 -2.8735 490.2993)" width="227.25" height="5.99"/>
	<rect x="1150.82" y="258.63" transform="matrix(0.9976 -0.069 0.069 0.9976 -15.0648 87.1911)" width="207.04" height="5.99"/>
	<rect x="1216.04" y="208.27" transform="matrix(0.3981 -0.9173 0.9173 0.3981 489.5999 1278.4022)" width="5.99" height="115.63"/>
	<rect x="1214.87" y="220.25" transform="matrix(0.8236 -0.5672 0.5672 0.8236 62.4016 738.1968)" width="5.99" height="97.07"/>
	<rect x="1213.08" y="216.52" width="5.99" height="97.12"/>
	<rect x="1147.99" y="262.08" transform="matrix(0.5003 -0.8658 0.8658 0.5003 377.0724 1183.5211)" width="131.84" height="5.99"/>
</g>
<text transform="matrix(1 0 0 1 2016.4047 239.0618)" style="font-family:'WorkSans-Light'; font-size:19.4529px;">TM</text>
<g>
	<path d="M1443.47,288.22c-3.81,2.88-9.6,4.31-17.38,4.31c-8.97,0-15.77-2-20.43-6.01c-4.65-4-6.98-9.78-6.98-17.34h7.78
		c0,5.7,1.65,9.93,4.95,12.69c3.3,2.76,8.25,4.14,14.84,4.14c5.13,0,8.94-0.82,11.42-2.45c2.48-1.63,3.72-4.12,3.72-7.44
		c0-4.96-3.33-8.29-9.98-9.98l-16.66-4.31c-8.85-2.31-13.28-7.3-13.28-14.97c0-5.13,1.8-9.05,5.41-11.76
		c3.61-2.71,8.85-4.06,15.73-4.06c8.01,0,14.14,1.82,18.4,5.46c4.26,3.64,6.39,8.7,6.39,15.18h-7.87c0-9.47-5.64-14.21-16.92-14.21
		c-8.91,0-13.36,3.02-13.36,9.05c0,4.51,3.02,7.56,9.05,9.14l16.49,4.14c4.79,1.24,8.39,3.2,10.78,5.88
		c2.4,2.68,3.59,6.02,3.59,10.02C1449.18,281.17,1447.28,285.35,1443.47,288.22z"/>
	<path d="M1486.15,291.61h-16.49c-1.97,0-3.46-0.48-4.44-1.44c-0.99-0.96-1.48-2.45-1.48-4.48V256h-9.3v-6.43h9.3v-10.66l7.53-2.28
		v12.94h13.2V256h-13.2v29.27l14.89-0.08V291.61z"> </path>
	<path d="M1501.12,249.57h23.77V256h-22.16v35.61h-7.53v-36.2C1495.2,251.51,1497.17,249.57,1501.12,249.57z"> </path>
	<path d="M1534.19,254.35c3.66-3.75,8.54-5.62,14.63-5.62c6.31,0,11.32,1.82,15.01,5.46c3.69,3.64,5.54,8.67,5.54,15.1v2.71h-33.41
		c0.11,4.29,1.31,7.77,3.59,10.45c2.28,2.68,5.51,4.02,9.68,4.02c3.5,0,6.33-0.85,8.5-2.54c2.17-1.69,3.62-4.03,4.36-7.02h7.44
		c-0.96,4.46-3.07,8.16-6.34,11.12c-3.27,2.96-7.9,4.44-13.87,4.44c-4.4,0-8.15-0.98-11.25-2.96c-3.1-1.97-5.44-4.65-7.02-8.04
		c-1.58-3.38-2.37-7.19-2.37-11.42C1528.69,263.33,1530.52,258.1,1534.19,254.35z M1562.02,266.65c-0.23-3.78-1.54-6.72-3.93-8.84
		c-2.4-2.12-5.48-3.17-9.26-3.17c-3.55,0-6.5,1.07-8.84,3.21c-2.34,2.14-3.65,5.08-3.93,8.8H1562.02z"> </path>
	<path d="M1581.34,271.52c2.28-2.11,5.82-3.4,10.62-3.85l16.49-1.61c-0.17-3.83-1.16-6.67-2.96-8.5c-1.81-1.83-4.57-2.75-8.29-2.75
		c-3.1,0-5.61,0.79-7.53,2.37c-1.92,1.58-3.04,4.03-3.38,7.36h-7.44c0.45-4.85,2.27-8.7,5.46-11.55c3.19-2.85,7.46-4.27,12.81-4.27
		c6.03,0,10.69,1.69,13.96,5.08c3.27,3.38,4.91,7.9,4.91,13.53v17.85h6.17v6.43h-7.7c-1.58,0-2.82-0.45-3.72-1.35
		c-0.9-0.9-1.35-2.14-1.35-3.72v-2.03l1.18-4.48h-2.11c-0.9,3.67-2.67,6.65-5.29,8.97c-2.62,2.31-6.3,3.47-11.04,3.47
		c-5.41,0-9.13-1.3-11.17-3.89c-2.03-2.59-3.04-5.47-3.04-8.63C1577.92,276.44,1579.06,273.63,1581.34,271.52z M1587.48,284.42
		c1.41,1.24,3.35,1.86,5.84,1.86c2.99,0,5.62-0.65,7.91-1.95c2.28-1.3,4.06-3.07,5.33-5.33c1.27-2.25,1.9-4.79,1.9-7.61l-15.23,1.61
		c-2.71,0.28-4.69,0.86-5.96,1.73c-1.27,0.88-1.9,2.3-1.9,4.27C1585.36,281.37,1586.07,283.18,1587.48,284.42z"></path>
	<path d="M1630.02,249.57h7.53v6.85l-1.27,5.07h2.12c1.92-8.51,6.91-12.77,14.97-12.77c3.72,0,6.62,1.14,8.71,3.43
		c2.08,2.28,3.38,5.4,3.89,9.35h1.35c1.92-8.51,6.91-12.77,14.97-12.77c4.28,0,7.54,1.54,9.77,4.61c2.23,3.07,3.34,7.12,3.34,12.14
		v26.14h-7.53v-24.53c0-4.23-0.61-7.27-1.82-9.14c-1.21-1.86-3.43-2.79-6.64-2.79c-4.06,0-7.23,1.65-9.52,4.95
		c-2.28,3.3-3.43,7.74-3.43,13.32v18.19h-7.53v-24.53c0-4.23-0.61-7.27-1.82-9.14c-1.21-1.86-3.43-2.79-6.64-2.79
		c-4.06,0-7.23,1.65-9.52,4.95c-2.28,3.3-3.43,7.74-3.43,13.32v18.19h-7.53V249.57z"> </path>
	<path d="M1716.3,288.94c-4.29-2.51-7.58-6.06-9.9-10.66c-2.31-4.59-3.47-9.94-3.47-16.03c0-6.43,1.27-12.01,3.81-16.75
		c2.54-4.74,6.13-8.37,10.79-10.91s10.05-3.81,16.2-3.81c5.25,0,10.02,0.94,14.34,2.83c4.31,1.89,7.85,4.52,10.62,7.91
		c2.76,3.38,4.48,7.3,5.16,11.76h-15.82c-0.51-2.76-2.02-4.99-4.53-6.68c-2.51-1.69-5.48-2.54-8.92-2.54
		c-4.96,0-8.83,1.58-11.59,4.74c-2.76,3.16-4.14,7.56-4.14,13.2c0,5.47,1.37,9.71,4.1,12.73c2.73,3.02,6.89,4.53,12.48,4.53
		c4.34,0,7.85-0.87,10.53-2.62c2.68-1.75,4.16-4.09,4.44-7.02h-14.38v-11.76h21.91c2.54,0,4.51,0.71,5.92,2.11
		c1.41,1.41,2.12,3.38,2.12,5.92v25.71h-15.31v-4.06l2.96-10.74h-3.89c0.05,0.17,0.08,0.56,0.08,1.18c0,1.92-0.48,3.99-1.44,6.22
		c-0.96,2.23-2.79,4.2-5.5,5.92c-2.71,1.72-6.51,2.58-11.42,2.58C1725.63,292.7,1720.58,291.45,1716.3,288.94z"> </path>
	<path d="M1775.25,258.28c1.92-3.33,4.59-5.88,8.04-7.65c3.44-1.78,7.39-2.66,11.84-2.66c7.39,0,13.12,1.89,17.21,5.67
		c4.09,3.78,6.13,9.05,6.13,15.82v3.81h-31.55c0.28,2.65,1.18,4.69,2.71,6.13c1.52,1.44,3.58,2.16,6.17,2.16
		c2.25,0,4.12-0.44,5.58-1.31c1.47-0.87,2.4-2.13,2.79-3.76h14.38c-0.62,4.79-2.95,8.66-6.98,11.59c-4.03,2.93-9.29,4.4-15.78,4.4
		c-4.74,0-8.88-0.93-12.43-2.79c-3.55-1.86-6.27-4.48-8.16-7.87c-1.89-3.38-2.83-7.3-2.83-11.76
		C1772.38,265.53,1773.34,261.61,1775.25,258.28z M1804.35,265.81c-0.23-2.37-1.11-4.19-2.66-5.46c-1.55-1.27-3.59-1.9-6.13-1.9
		c-2.54,0-4.57,0.63-6.09,1.9s-2.37,3.09-2.54,5.46H1804.35z"> </path>
	<path d="M1824.9,248.81h14.46v4.82l-2.71,8.04h3.55c0.9-4.06,2.72-7.36,5.46-9.9c2.73-2.54,6.27-3.81,10.62-3.81
		c5.58,0,9.97,1.81,13.15,5.41c3.19,3.61,4.78,8.77,4.78,15.48v22.75h-14.55v-20.38c0-3.89-0.62-6.61-1.86-8.16
		c-1.24-1.55-3.47-2.33-6.68-2.33c-3.83,0-6.75,1.14-8.75,3.43c-2,2.28-3,6.27-3,11.97v15.48h-14.46V248.81z"> </path>
	<path d="M1880.39,278.83h12.01v-17.25h-10.49v-12.77h16.49c2.37,0,4.19,0.61,5.46,1.82c1.27,1.21,1.9,2.97,1.9,5.29v22.92h12.1
		v12.77h-37.47V278.83z M1891.85,243.27c-1.5-1.21-2.24-3.03-2.24-5.46c0-2.42,0.75-4.24,2.24-5.46c1.49-1.21,3.57-1.82,6.22-1.82
		c2.65,0,4.76,0.62,6.34,1.86c1.58,1.24,2.37,3.04,2.37,5.41c0,2.42-0.78,4.24-2.33,5.46c-1.55,1.21-3.68,1.82-6.39,1.82
		C1895.42,245.08,1893.35,244.48,1891.85,243.27z"/>
	<path d="M1926.32,287.04c-3.16-3.61-4.74-8.77-4.74-15.48v-22.75h14.55v20.38c0,3.89,0.62,6.61,1.86,8.16
		c1.24,1.55,3.47,2.33,6.68,2.33c3.83,0,6.75-1.14,8.75-3.43c2-2.28,3-6.27,3-11.97v-15.48h14.46v42.8h-14.46v-4.82l2.71-8.04h-3.55
		c-0.9,4.06-2.74,7.36-5.5,9.9c-2.76,2.54-6.32,3.81-10.66,3.81C1933.85,292.45,1929.48,290.65,1926.32,287.04z"> </path>
	<path d="M1982.7,288.35c-3.81-2.73-5.71-6.81-5.71-12.22h14.55c0,2.14,0.68,3.69,2.03,4.65c1.35,0.96,3.5,1.44,6.43,1.44
		c2.03,0,3.5-0.24,4.4-0.72c0.9-0.48,1.35-1.23,1.35-2.24c0-1.41-1.07-2.4-3.21-2.96l-13.45-3.64c-2.93-0.73-5.47-2.06-7.61-3.97
		c-2.14-1.92-3.21-4.6-3.21-8.04c0-4.12,1.72-7.26,5.16-9.43c3.44-2.17,8.26-3.26,14.46-3.26c6.82,0,12.15,1.33,15.99,3.98
		c3.83,2.65,5.75,6.54,5.75,11.67h-14.46c0-1.86-0.58-3.24-1.73-4.14c-1.16-0.9-2.97-1.35-5.46-1.35c-3.5,0-5.25,0.9-5.25,2.71
		c0,1.41,1.41,2.48,4.23,3.21l9.98,2.37c4,0.96,7.23,2.44,9.68,4.44c2.45,2,3.68,4.89,3.68,8.67c0,4.23-1.72,7.44-5.16,9.64
		s-8.6,3.3-15.48,3.3C1992.16,292.45,1986.5,291.09,1982.7,288.35z"> </path>
</g>
<g>
	<rect x="2314.37" y="281.08" transform="matrix(0.7881 -0.6156 0.6156 0.7881 338.7521 1552.8351)" width="220.7" height="6.67"/>
	<rect x="2326.97" y="270.86" transform="matrix(0.9253 -0.3792 0.3792 0.9253 79.2957 950.9501)" width="253.14" height="6.67"/>
	<rect x="2350.7" y="281.08" transform="matrix(0.9976 -0.069 0.069 0.9976 -13.7488 170.8686)" width="230.63" height="6.67"/>

		<rect x="2423.35" y="224.99" transform="matrix(0.3981 -0.9173 0.9173 0.3981 1195.0703 2400.2415)" width="6.67" height="128.81"/>
	<rect x="2422.05" y="238.33" transform="matrix(0.8236 -0.5672 0.5672 0.8236 262.0451 1427.2737)" width="6.67" height="108.13"/>
	<rect x="2420.06" y="234.17" width="6.67" height="108.18"/>
	<rect x="2347.55" y="284.92" transform="matrix(0.5003 -0.8658 0.8658 0.5003 960.1651 2240.2493)" width="146.86" height="6.67"/>
</g>
<text transform="matrix(1 0 0 1 2959.3242 348.2549)" style="font-family:'WorkSans-Light'; font-size:21.6689px;">TM</text>
<g>
	<path class="st1" d="M2708.85,313.44c-1.73-1.41-4-2.12-6.83-2.12c-2.83,0-5.09,0.71-6.78,2.12c-1.7,1.41-2.64,3.44-2.83,6.08
		h19.41C2711.57,316.88,2710.58,314.85,2708.85,313.44z"/>
	<path class="st1" d="M2785.69,241.96c-2.67-2.36-6.11-3.53-10.32-3.53c-3.96,0-7.24,1.2-9.85,3.58c-2.61,2.39-4.07,5.65-4.38,9.8
		h28.92C2789.81,247.59,2788.35,244.31,2785.69,241.96z"/>
	<path class="st1" d="M2818.19,260.8c-1.41,0.98-2.12,2.56-2.12,4.76c0,2.64,0.78,4.65,2.35,6.03c1.57,1.38,3.74,2.07,6.5,2.07
		c3.33,0,6.27-0.72,8.81-2.17c2.54-1.44,4.52-3.42,5.94-5.93c1.41-2.51,2.12-5.34,2.12-8.48l-16.96,1.79
		C2821.82,259.18,2819.6,259.83,2818.19,260.8z"/>
	<g>
		<path class="st2" d="M2687.18,280.1c-2.33,0-4.11-0.59-5.29-1.74c-1.19-1.16-1.8-2.96-1.8-5.35v-32.57h-10.36v-8.16h10.36v-11.74
			l9.38-2.85v14.59h14.7v8.16h-14.7v31.6l16.58-0.09v8.16H2687.18z"/>
		<path class="st3" d="M2688.97,218.35v14.42h14.7v7.16h-14.7v32.6l16.58-0.09v7.16h-18.37c-2.2,0-3.85-0.53-4.95-1.6
			c-1.1-1.07-1.65-2.73-1.65-4.99v-33.07h-10.36v-7.16h10.36V220.9L2688.97,218.35 M2689.97,217.01l-1.29,0.39l-8.39,2.54
			l-0.71,0.22v0.74v10.87h-9.36h-1v1v7.16v1h1h9.36V273c0,2.53,0.66,4.45,1.95,5.71c1.28,1.25,3.18,1.88,5.64,1.88h18.37h1v-1v-7.16
			v-1.01l-1.01,0.01l-15.58,0.09v-30.59h13.7h1v-1v-7.16v-1h-1h-13.7v-13.42V217.01L2689.97,217.01z"/>
	</g>
	<g>
		<path class="st2" d="M2715.13,280.1v-40.83c0-4.58,2.45-7,7.09-7h26.98v8.16h-24.68v39.67H2715.13z"/>
		<path class="st3" d="M2748.7,232.77v7.16h-24.69v39.67h-8.38v-40.33c0-4.33,2.2-6.5,6.59-6.5H2748.7 M2749.7,231.77h-1h-26.48
			c-4.97,0-7.59,2.59-7.59,7.5v40.33v1h1h8.38h1v-1v-38.67h23.69h1v-1v-7.16V231.77L2749.7,231.77z"/>
	</g>
	<g>
		<path class="st2" d="M2775.93,281.04c-4.98,0-9.28-1.14-12.8-3.38c-3.52-2.24-6.21-5.32-8-9.16c-1.78-3.81-2.69-8.16-2.69-12.93
			c0-7.57,2.11-13.57,6.27-17.83c4.16-4.26,9.76-6.41,16.66-6.41c7.13,0,12.88,2.09,17.08,6.22c4.19,4.13,6.32,9.91,6.32,17.18v3.51
			h-37.2c0.2,4.4,1.5,8.04,3.87,10.81c2.43,2.85,5.93,4.3,10.41,4.3c3.76,0,6.84-0.92,9.16-2.72c2.32-1.81,3.89-4.34,4.67-7.54
			l0.09-0.38h9.3l-0.13,0.6c-1.08,5.04-3.51,9.3-7.22,12.66C2788,279.33,2782.69,281.04,2775.93,281.04z M2789.53,251.3
			c-0.33-3.8-1.73-6.82-4.17-8.97c-2.57-2.26-5.92-3.41-9.99-3.41c-3.81,0-7.01,1.16-9.51,3.45c-2.39,2.18-3.79,5.19-4.17,8.93
			H2789.53z"/>
		<path class="st3" d="M2775.37,231.83c7.03,0,12.61,2.03,16.72,6.08c4.11,4.05,6.17,9.66,6.17,16.82v3.01h-37.22
			c0.12,4.77,1.46,8.65,4,11.64c2.54,2.98,6.14,4.48,10.79,4.48c3.89,0,7.05-0.94,9.47-2.83c2.42-1.89,4.03-4.49,4.85-7.82h8.29
			c-1.07,4.96-3.42,9.09-7.07,12.39c-3.65,3.3-8.79,4.94-15.45,4.94c-4.9,0-9.08-1.1-12.53-3.3c-3.45-2.2-6.06-5.18-7.82-8.95
			c-1.76-3.77-2.64-8.01-2.64-12.72c0-7.47,2.04-13.3,6.12-17.48C2763.15,233.92,2768.58,231.83,2775.37,231.83 M2761.14,251.8
			h28.92c-0.25-4.21-1.71-7.49-4.38-9.85c-2.67-2.36-6.11-3.53-10.32-3.53c-3.96,0-7.24,1.2-9.85,3.58
			C2762.91,244.39,2761.46,247.66,2761.14,251.8 M2775.37,230.83c-7.03,0-12.76,2.21-17.02,6.57c-4.25,4.35-6.41,10.47-6.41,18.18
			c0,4.84,0.92,9.26,2.73,13.14c1.83,3.93,4.58,7.08,8.19,9.37c3.6,2.29,8,3.45,13.07,3.45c6.88,0,12.3-1.75,16.12-5.2
			c3.79-3.43,6.27-7.78,7.37-12.92l0.26-1.21h-1.24h-8.29h-0.78l-0.19,0.76c-0.76,3.09-2.27,5.53-4.5,7.27
			c-2.23,1.74-5.21,2.62-8.85,2.62c-4.38,0-7.66-1.35-10.03-4.13c-2.2-2.58-3.45-5.93-3.72-9.99h36.17h1v-1v-3.01
			c0-7.4-2.18-13.3-6.47-17.53C2788.5,232.97,2782.64,230.83,2775.37,230.83L2775.37,230.83z M2762.25,250.8
			c0.44-3.39,1.74-6.04,3.95-8.06c2.4-2.2,5.49-3.32,9.17-3.32c3.94,0,7.18,1.11,9.66,3.28c2.26,1.99,3.56,4.65,3.95,8.1H2762.25
			L2762.25,250.8z"/>
	</g>
	<g>
		<path class="st2" d="M2823.61,281.04c-6.16,0-10.48-1.52-12.83-4.52c-2.32-2.97-3.5-6.3-3.5-9.92c0-4.02,1.34-7.3,3.98-9.74
			c2.62-2.42,6.69-3.9,12.12-4.42l17.9-1.74c-0.24-3.89-1.29-6.8-3.13-8.67c-1.9-1.93-4.89-2.91-8.88-2.91
			c-3.32,0-6.03,0.85-8.07,2.52c-2.02,1.66-3.23,4.31-3.59,7.86l-0.04,0.45h-9.29l0.05-0.55c0.51-5.5,2.61-9.94,6.24-13.19
			c3.63-3.24,8.54-4.88,14.61-4.88c6.83,0,12.18,1.95,15.91,5.8c3.72,3.85,5.61,9.04,5.61,15.42v19.38h6.88v8.16h-9.08
			c-1.89,0-3.4-0.56-4.5-1.66c-1.1-1.09-1.65-2.61-1.65-4.5v-2.33l1.17-4.43h-1.32c-1.05,3.99-3.05,7.31-5.95,9.87
			C2833.23,279.7,2828.98,281.04,2823.61,281.04z M2824.89,259.37c-2.92,0.31-5.07,0.93-6.41,1.85c-1.28,0.88-1.9,2.31-1.9,4.35
			c0,2.48,0.74,4.38,2.18,5.65c1.47,1.29,3.55,1.95,6.17,1.95c3.23,0,6.11-0.71,8.56-2.1c2.45-1.39,4.38-3.32,5.75-5.75
			c1.28-2.28,1.97-4.86,2.05-7.68L2824.89,259.37z"/>
		<path class="st3" d="M2829.17,231.83c6.72,0,11.9,1.89,15.55,5.65c3.64,3.77,5.46,8.79,5.46,15.08v19.88h6.88v7.16h-8.58
			c-1.76,0-3.14-0.5-4.15-1.51c-1.01-1-1.51-2.39-1.51-4.14v-2.26l1.32-5h-2.35c-1.01,4.09-2.97,7.41-5.89,9.99
			c-2.92,2.57-7.02,3.86-12.3,3.86c-6.03,0-10.18-1.44-12.44-4.33c-2.26-2.89-3.39-6.09-3.39-9.61c0-3.89,1.27-7.02,3.82-9.37
			c2.54-2.35,6.49-3.78,11.82-4.28l18.37-1.79c-0.19-4.27-1.29-7.43-3.3-9.47c-2.01-2.04-5.09-3.06-9.23-3.06
			c-3.45,0-6.25,0.88-8.39,2.64c-2.14,1.76-3.39,4.49-3.77,8.2h-8.29c0.5-5.4,2.53-9.69,6.08-12.86
			C2818.44,233.42,2823.2,231.83,2829.17,231.83 M2824.93,273.66c3.33,0,6.27-0.72,8.81-2.17c2.54-1.44,4.52-3.42,5.94-5.93
			c1.41-2.51,2.12-5.34,2.12-8.48l-16.96,1.79c-3.02,0.32-5.23,0.96-6.64,1.93c-1.41,0.98-2.12,2.56-2.12,4.76
			c0,2.64,0.78,4.65,2.35,6.03C2820,272.97,2822.16,273.66,2824.93,273.66 M2829.17,230.83c-6.19,0-11.22,1.69-14.94,5.01
			c-3.73,3.33-5.88,7.88-6.41,13.52l-0.1,1.09h1.1h8.29h0.9l0.09-0.9c0.35-3.42,1.5-5.95,3.41-7.53c1.94-1.6,4.55-2.41,7.75-2.41
			c3.85,0,6.71,0.93,8.52,2.76c1.68,1.7,2.67,4.34,2.95,7.87l-17.41,1.7c-5.53,0.52-9.71,2.05-12.41,4.55
			c-2.75,2.54-4.14,5.94-4.14,10.11c0,3.73,1.21,7.17,3.6,10.23c2.45,3.13,6.9,4.72,13.23,4.72c5.5,0,9.86-1.38,12.96-4.11
			c2.88-2.54,4.89-5.82,6-9.74h0.29l-0.99,3.74l-0.03,0.13v0.13v2.26c0,2.03,0.61,3.66,1.8,4.85c1.19,1.19,2.82,1.8,4.85,1.8h8.58h1
			v-1v-7.16v-1h-1h-5.88v-18.88c0-6.52-1.93-11.82-5.75-15.77C2841.61,232.83,2836.14,230.83,2829.17,230.83L2829.17,230.83z
			 M2824.93,272.66c-2.5,0-4.47-0.61-5.84-1.82c-1.36-1.19-2.02-2.92-2.02-5.28c0-1.87,0.55-3.15,1.69-3.94
			c1.27-0.87,3.35-1.46,6.18-1.76l15.82-1.67c-0.15,2.52-0.81,4.83-1.96,6.88c-1.32,2.34-3.19,4.21-5.56,5.55
			C2830.87,271.98,2828.07,272.66,2824.93,272.66L2824.93,272.66z"/>
	</g>
	<g>
		<path class="st2" d="M2929.76,280.1v-27.82c0-4.59-0.65-7.92-1.94-9.9c-1.25-1.91-3.6-2.88-6.98-2.88c-4.39,0-7.72,1.73-10.19,5.3
			c-2.47,3.57-3.73,8.47-3.73,14.55v20.76h-9.38v-27.82c0-4.59-0.66-7.92-1.95-9.9c-1.25-1.91-3.59-2.88-6.98-2.88
			c-4.39,0-7.72,1.73-10.19,5.3c-2.47,3.57-3.73,8.47-3.73,14.55v20.76h-9.38v-47.83h9.38v8.19l-1.27,5.09h1.32
			c2.25-9.44,7.99-14.23,17.07-14.23c4.27,0,7.66,1.34,10.07,3.98c2.31,2.53,3.79,5.97,4.4,10.25h0.67
			c2.25-9.44,7.99-14.23,17.07-14.23c4.92,0,8.72,1.8,11.29,5.34c2.53,3.5,3.82,8.15,3.82,13.81v29.61H2929.76z"/>
		<path class="st3" d="M2924.05,231.83c4.77,0,8.4,1.71,10.88,5.13c2.48,3.43,3.72,7.93,3.72,13.52v29.11h-8.39v-27.32
			c0-4.71-0.67-8.1-2.02-10.18c-1.35-2.07-3.82-3.11-7.4-3.11c-4.52,0-8.05,1.84-10.6,5.51c-2.54,3.67-3.82,8.62-3.82,14.84v20.26
			h-8.38v-27.32c0-4.71-0.68-8.1-2.03-10.18c-1.35-2.07-3.82-3.11-7.4-3.11c-4.52,0-8.05,1.84-10.6,5.51
			c-2.54,3.67-3.82,8.62-3.82,14.84v20.26h-8.38v-46.83h8.38v7.63l-1.41,5.65h2.36c2.14-9.48,7.69-14.22,16.68-14.22
			c4.15,0,7.38,1.27,9.7,3.81c2.32,2.54,3.77,6.02,4.33,10.41h1.51C2909.5,236.57,2915.06,231.83,2924.05,231.83 M2924.05,230.83
			c-9.11,0-14.95,4.67-17.38,13.87c-0.69-4.02-2.17-7.29-4.4-9.74c-2.51-2.75-6.03-4.14-10.44-4.14c-9.22,0-15.09,4.79-17.47,14.22
			h-0.29l1.1-4.41l0.03-0.12v-0.12v-7.63v-1h-1h-8.38h-1v1v46.83v1h1h8.38h1v-1v-20.26c0-5.98,1.22-10.78,3.64-14.27
			c2.37-3.42,5.57-5.08,9.78-5.08c3.25,0,5.39,0.87,6.56,2.66c1.24,1.9,1.86,5.14,1.86,9.63v27.32v1h1h8.38h1v-1v-20.26
			c0-5.98,1.22-10.78,3.64-14.27c2.37-3.42,5.57-5.08,9.78-5.08c3.25,0,5.39,0.87,6.56,2.66c1.24,1.9,1.86,5.14,1.86,9.63v27.32v1h1
			h8.39h1v-1v-29.11c0-5.78-1.32-10.52-3.91-14.11C2933.07,232.7,2929.14,230.83,2924.05,230.83L2924.05,230.83z"/>
	</g>
	<g>
		<g>
			<path class="st2" d="M2638.66,281.13c-10.06,0-17.83-2.29-23.08-6.81c-5.27-4.54-7.95-11.16-7.95-19.69v-0.5h9.67v0.5
				c0,6.16,1.79,10.79,5.33,13.75c3.57,2.99,9.02,4.5,16.21,4.5c5.59,0,9.78-0.89,12.44-2.65c2.64-1.74,3.92-4.31,3.92-7.87
				c0-5.32-3.51-8.79-10.74-10.63l-18.56-4.81c-10.06-2.63-15.17-8.4-15.17-17.16c0-5.86,2.1-10.4,6.23-13.5
				c4.09-3.07,10.09-4.62,17.83-4.62c9,0,16,2.08,20.82,6.19c4.84,4.14,7.29,9.95,7.29,17.3v0.5h-9.76v-0.5
				c0-10.32-6-15.33-18.34-15.33c-9.68,0-14.39,3.13-14.39,9.58c0,4.81,3.18,7.98,9.71,9.69l18.37,4.62
				c5.42,1.4,9.54,3.65,12.26,6.7c2.74,3.06,4.13,6.93,4.13,11.5c0,6.23-2.21,11.06-6.56,14.34
				C2654.01,279.48,2647.39,281.13,2638.66,281.13z"/>
			<path class="st3" d="M2634.79,212.14c8.92,0,15.75,2.03,20.49,6.08c4.74,4.05,7.11,9.69,7.11,16.91h-8.76
				c0-10.55-6.28-15.83-18.84-15.83c-9.93,0-14.89,3.36-14.89,10.08c0,5.03,3.36,8.42,10.08,10.18l18.37,4.62
				c5.34,1.38,9.34,3.56,12.01,6.55c2.67,2.98,4,6.71,4,11.17c0,6.09-2.12,10.74-6.36,13.95c-4.24,3.2-10.69,4.8-19.36,4.8
				c-9.99,0-17.57-2.23-22.75-6.69c-5.18-4.46-7.77-10.9-7.77-19.31h8.67c0,6.34,1.84,11.06,5.51,14.13
				c3.68,3.08,9.19,4.62,16.54,4.62c5.72,0,9.96-0.91,12.72-2.73c2.76-1.82,4.15-4.59,4.15-8.29c0-5.53-3.71-9.23-11.12-11.12
				l-18.56-4.81c-9.86-2.57-14.79-8.13-14.79-16.68c0-5.71,2.01-10.08,6.03-13.1C2621.29,213.65,2627.13,212.14,2634.79,212.14
				 M2634.79,211.14c-7.85,0-13.95,1.59-18.13,4.72c-4.27,3.2-6.43,7.88-6.43,13.9c0,9.02,5.23,14.95,15.54,17.64l18.56,4.81
				c6.98,1.77,10.37,5.09,10.37,10.15c0,3.38-1.21,5.82-3.7,7.46c-2.58,1.7-6.68,2.57-12.17,2.57c-7.07,0-12.42-1.48-15.89-4.39
				c-3.42-2.86-5.15-7.36-5.15-13.36v-1h-1h-8.67h-1v1c0,8.68,2.73,15.44,8.12,20.07c5.34,4.6,13.22,6.93,23.41,6.93
				c8.85,0,15.57-1.68,19.97-5.01c4.48-3.39,6.76-8.35,6.76-14.74c0-4.69-1.43-8.67-4.26-11.83c-2.79-3.12-7-5.42-12.51-6.85
				l-18.38-4.62c-6.27-1.64-9.33-4.65-9.33-9.21c0-6.11,4.54-9.08,13.89-9.08c12.01,0,17.84,4.85,17.84,14.83v1h1h8.76h1v-1
				c0-7.49-2.51-13.44-7.46-17.67C2651.03,213.26,2643.91,211.14,2634.79,211.14L2634.79,211.14z"/>
		</g>
		<g>
			<path class="st2" d="M2630.6,350.98c-6.71,0-12.64-1.48-17.62-4.4c-5.01-2.93-8.91-7.13-11.61-12.49
				c-2.67-5.3-4.02-11.54-4.02-18.53c0-7.37,1.49-13.89,4.42-19.36c2.95-5.51,7.2-9.81,12.62-12.76c5.38-2.93,11.7-4.42,18.76-4.42
				c6.02,0,11.6,1.1,16.57,3.28c5,2.19,9.17,5.3,12.39,9.24c3.24,3.96,5.28,8.61,6.07,13.82l0.26,1.72h-20.61l-0.23-1.23
				c-0.5-2.69-1.94-4.8-4.41-6.47c-2.53-1.71-5.59-2.57-9.1-2.57c-5.12,0-8.97,1.56-11.78,4.77c-2.82,3.22-4.25,7.83-4.25,13.71
				c0,5.68,1.41,10.11,4.18,13.17c2.74,3.02,7.04,4.55,12.79,4.55c4.52,0,8.19-0.9,10.91-2.68c2.08-1.35,3.38-3.02,3.97-5.06h-15.72
				v-16.1h25.9c3.22,0,5.8,0.94,7.65,2.8s2.8,4.43,2.8,7.65v30.14h-20.05v-6.22l2.83-10.26h-0.77c-0.03,2.28-0.61,4.75-1.72,7.34
				c-1.19,2.75-3.44,5.2-6.7,7.27C2640.88,349.94,2636.33,350.98,2630.6,350.98z"/>
			<path class="st3" d="M2633.14,280.51c5.84,0,11.17,1.05,15.97,3.15c4.8,2.11,8.75,5.04,11.83,8.81
				c3.08,3.77,4.99,8.13,5.75,13.09h-17.62c-0.57-3.07-2.25-5.56-5.04-7.44c-2.8-1.89-6.11-2.83-9.94-2.83
				c-5.53,0-9.83,1.76-12.91,5.28s-4.62,8.42-4.62,14.7c0,6.09,1.52,10.82,4.57,14.18c3.05,3.36,7.68,5.04,13.9,5.04
				c4.84,0,8.75-0.98,11.73-2.92c2.98-1.95,4.63-4.55,4.95-7.82h-16.02v-13.1h24.4c2.83,0,5.02,0.79,6.59,2.36
				c1.57,1.57,2.36,3.77,2.36,6.59v28.64h-17.05v-4.52l3.3-11.97h-4.34c0.06,0.19,0.09,0.63,0.09,1.32c0,2.14-0.53,4.44-1.6,6.92
				c-1.07,2.48-3.11,4.68-6.12,6.59c-3.01,1.92-7.26,2.87-12.72,2.87c-6.47,0-12.09-1.4-16.86-4.19
				c-4.77-2.79-8.45-6.75-11.02-11.87c-2.58-5.12-3.86-11.07-3.86-17.86c0-7.16,1.41-13.38,4.24-18.65
				c2.83-5.27,6.83-9.33,12.01-12.15C2620.28,281.93,2626.3,280.51,2633.14,280.51 M2633.14,277.51c-7.32,0-13.87,1.55-19.48,4.6
				c-5.68,3.1-10.13,7.6-13.22,13.37c-3.05,5.69-4.6,12.45-4.6,20.07c0,7.23,1.41,13.69,4.18,19.21
				c2.83,5.62,6.93,10.03,12.19,13.11c5.21,3.05,11.4,4.6,18.38,4.6c6.11,0,10.79-1.09,14.33-3.34c1.57-0.99,2.92-2.08,4.06-3.24
				v2.36v3h3h17.05h3v-3v-28.64c0-3.64-1.09-6.57-3.24-8.72c-1.01-1.01-2.19-1.79-3.54-2.32h1.42h3.49l-0.52-3.45
				c-0.83-5.48-2.98-10.37-6.39-14.54c-3.37-4.12-7.72-7.37-12.94-9.66C2645.15,278.66,2639.38,277.51,2633.14,277.51
				L2633.14,277.51z M2635.03,331.5c-5.38,0-9.2-1.33-11.68-4.06c-2.52-2.78-3.79-6.87-3.79-12.17c0-5.5,1.3-9.78,3.87-12.72
				c2.51-2.86,5.99-4.25,10.65-4.25c3.25,0,5.95,0.76,8.26,2.32c2.12,1.43,3.35,3.23,3.77,5.5l0.28,1.55h-10.71h-3v3v13.1v3h3h11.88
				c-0.59,0.86-1.4,1.62-2.45,2.31C2642.64,330.68,2639.25,331.5,2635.03,331.5L2635.03,331.5z"/>
		</g>
	</g>
	<g>
		<path class="st2" d="M2702.3,350.7c-5.5,0-10.39-1.1-14.55-3.28c-4.2-2.2-7.46-5.35-9.71-9.36c-2.22-3.97-3.35-8.62-3.35-13.83
			c0-5.27,1.14-9.93,3.4-13.85c2.28-3.95,5.49-7.01,9.56-9.11c4.03-2.08,8.7-3.14,13.88-3.14c8.58,0,15.37,2.26,20.19,6.71
			c4.85,4.49,7.31,10.79,7.31,18.72v5.74h-34.88c0.41,1.79,1.16,3.19,2.28,4.24c1.42,1.34,3.33,1.99,5.85,1.99
			c2.23,0,4.06-0.42,5.45-1.25c1.29-0.76,2.08-1.83,2.42-3.25l0.28-1.15h18.91l-0.22,1.69c-0.74,5.74-3.56,10.42-8.38,13.93
			C2716.03,348.96,2709.82,350.7,2702.3,350.7z M2710.04,318.02c-0.38-1.43-1.09-2.56-2.14-3.41c-1.45-1.18-3.42-1.78-5.88-1.78
			c-2.45,0-4.41,0.6-5.82,1.77c-1.03,0.85-1.71,1.98-2.05,3.42H2710.04z"/>
		<path class="st3" d="M2701.55,299.64c8.23,0,14.62,2.11,19.17,6.31c4.55,4.21,6.83,10.08,6.83,17.62v4.24h-35.15
			c0.31,2.95,1.32,5.23,3.02,6.83c1.7,1.6,3.99,2.4,6.88,2.4c2.51,0,4.58-0.49,6.22-1.46c1.63-0.97,2.67-2.37,3.11-4.19h16.02
			c-0.69,5.34-3.28,9.64-7.77,12.91c-4.49,3.27-10.35,4.9-17.57,4.9c-5.28,0-9.89-1.04-13.85-3.11c-3.96-2.07-6.99-4.99-9.09-8.76
			c-2.11-3.77-3.16-8.13-3.16-13.09c0-5.02,1.07-9.39,3.2-13.1c2.14-3.7,5.12-6.55,8.95-8.53
			C2692.19,300.63,2696.59,299.64,2701.55,299.64 M2692.41,319.52h19.41c-0.25-2.64-1.24-4.67-2.97-6.08
			c-1.73-1.41-4-2.12-6.83-2.12c-2.83,0-5.09,0.71-6.78,2.12C2693.54,314.85,2692.6,316.88,2692.41,319.52 M2701.55,296.64
			c-5.42,0-10.32,1.11-14.57,3.3c-4.33,2.23-7.75,5.49-10.17,9.69c-2.39,4.14-3.6,9.06-3.6,14.6c0,5.46,1.19,10.36,3.54,14.56
			c2.38,4.27,5.86,7.62,10.32,9.96c4.37,2.29,9.5,3.45,15.24,3.45c7.84,0,14.34-1.84,19.34-5.47c5.16-3.76,8.19-8.79,8.98-14.95
			l0.44-3.39h-0.51v-0.58v-4.24c0-8.37-2.62-15.04-7.8-19.82C2717.65,299.03,2710.51,296.64,2701.55,296.64L2701.55,296.64z
			 M2696.43,316.52c0.21-0.29,0.45-0.54,0.72-0.77c1.15-0.96,2.74-1.43,4.87-1.43c2.13,0,3.74,0.47,4.93,1.44
			c0.27,0.22,0.52,0.48,0.73,0.75H2696.43L2696.43,316.52z M2696.27,330.81h12.41c-0.26,0.97-0.79,1.65-1.7,2.19
			c-1.16,0.69-2.73,1.04-4.68,1.04c-2.11,0-3.69-0.52-4.82-1.58C2697,332,2696.6,331.46,2696.27,330.81L2696.27,330.81z"/>
	</g>
	<g>
		<path class="st2" d="M2771.94,349.76v-24.21c0-4.93-0.95-7.16-1.75-8.16c-1.08-1.34-3.19-2.02-6.27-2.02
			c-3.86,0-6.68,1.08-8.62,3.3c-1.97,2.25-2.97,6.4-2.97,12.34v18.74h-19.11v-50.67h19.11v7.12l-2.43,7.2h0.69
			c1.15-4.28,3.24-7.85,6.23-10.62c3.32-3.08,7.64-4.64,12.84-4.64c6.63,0,11.94,2.2,15.78,6.54c3.78,4.29,5.7,10.42,5.7,18.24
			v26.84H2771.94z"/>
		<path class="st3" d="M2769.67,299.64c6.22,0,11.1,2.01,14.65,6.03c3.55,4.02,5.32,9.77,5.32,17.24v25.34h-16.21v-22.71
			c0-4.33-0.69-7.36-2.07-9.09c-1.38-1.73-3.86-2.59-7.44-2.59c-4.27,0-7.52,1.27-9.75,3.81c-2.23,2.54-3.34,6.99-3.34,13.33v17.24
			h-16.11v-47.67h16.11v5.37l-3.01,8.95h3.96c1-4.52,3.03-8.2,6.08-11.02C2760.89,301.05,2764.83,299.64,2769.67,299.64
			 M2769.67,296.64c-5.6,0-10.26,1.7-13.86,5.04c-0.71,0.65-1.37,1.35-1.98,2.09v-3.19v-3h-3h-16.11h-3v3v47.67v3h3h16.11h3v-3
			v-17.24c0-6.93,1.41-10,2.6-11.36c1.65-1.88,4.1-2.79,7.5-2.79c1.79,0,4.13,0.25,5.1,1.46c0.53,0.66,1.41,2.48,1.41,7.22v22.71v3
			h3h16.21h3v-3v-25.34c0-8.19-2.04-14.66-6.07-19.23C2782.44,299.01,2776.75,296.64,2769.67,296.64L2769.67,296.64z"/>
	</g>
	<g>
		<path class="st2" d="M2795.02,349.76v-17.22h13.38v-16.22h-11.68v-17.22h19.87c3.03,0,5.42,0.82,7.12,2.44
			c1.71,1.63,2.58,3.98,2.58,6.97v24.04h13.47v17.22H2795.02z"/>
		<path class="st3" d="M2816.59,300.58c2.64,0,4.67,0.67,6.08,2.03c1.41,1.35,2.12,3.31,2.12,5.89v25.54h13.47v14.22h-41.74v-14.22
			h13.38v-19.22h-11.68v-14.22H2816.59 M2816.59,297.58h-18.37h-3v3v14.22v3h3h8.68v13.22h-10.38h-3v3v14.22v3h3h41.74h3v-3v-14.22
			v-3h-3h-10.47V308.5c0-3.42-1.03-6.13-3.05-8.06C2822.76,298.54,2820.02,297.58,2816.59,297.58L2816.59,297.58z"/>
	</g>
	<g>
		<path class="st2" d="M2816.21,297.94c-3.29,0-5.94-0.79-7.87-2.36c-2.02-1.64-3.05-4.08-3.05-7.24s1.03-5.6,3.05-7.24
			c1.93-1.57,4.58-2.36,7.87-2.36c3.28,0,5.97,0.81,7.99,2.39c2.13,1.68,3.21,4.1,3.21,7.21c0,3.17-1.07,5.62-3.17,7.26
			C2822.26,297.15,2819.56,297.94,2816.21,297.94z"/>
		<path class="st3" d="M2816.21,280.23c2.95,0,5.31,0.69,7.07,2.07c1.76,1.38,2.64,3.39,2.64,6.03c0,2.7-0.86,4.73-2.59,6.08
			c-1.73,1.35-4.1,2.03-7.11,2.03c-2.95,0-5.26-0.67-6.93-2.03c-1.67-1.35-2.5-3.38-2.5-6.08c0-2.7,0.83-4.73,2.5-6.08
			C2810.95,280.91,2813.26,280.23,2816.21,280.23 M2816.21,277.23c-3.65,0-6.61,0.91-8.82,2.7c-1.64,1.33-3.61,3.87-3.61,8.4
			c0,4.53,1.96,7.07,3.61,8.41c2.2,1.79,5.17,2.69,8.81,2.69c3.69,0,6.7-0.9,8.96-2.66c1.71-1.33,3.74-3.88,3.74-8.44
			c0-4.47-2.06-7.03-3.79-8.39C2822.84,278.14,2819.84,277.23,2816.21,277.23L2816.21,277.23z"/>
	</g>
	<g>
		<path class="st2" d="M2862.29,350.7c-6.64,0-11.93-2.2-15.73-6.54c-3.75-4.28-5.65-10.42-5.65-18.23v-26.84h19.21v24.21
			c0,4.94,0.95,7.16,1.75,8.16c1.08,1.35,3.18,2.03,6.27,2.03c3.85,0,6.67-1.08,8.62-3.31c1.97-2.25,2.97-6.41,2.97-12.34v-18.74
			h19.11v50.67h-19.11v-7.12l2.43-7.2h-0.69c-1.15,4.28-3.27,7.85-6.29,10.63C2871.82,349.14,2867.49,350.7,2862.29,350.7z"/>
		<path class="st3" d="M2897.34,300.58v47.67h-16.11v-5.37l3.01-8.95h-3.96c-1.01,4.52-3.05,8.2-6.12,11.02
			c-3.08,2.82-7.03,4.24-11.87,4.24c-6.22,0-11.09-2.01-14.6-6.03c-3.52-4.02-5.28-9.77-5.28-17.24v-25.34h16.21v22.71
			c0,4.33,0.69,7.36,2.07,9.09c1.38,1.73,3.86,2.59,7.44,2.59c4.27,0,7.52-1.27,9.75-3.82c2.23-2.54,3.35-6.99,3.35-13.33v-17.24
			H2897.34 M2900.34,297.58h-3h-16.11h-3v3v17.24c0,6.93-1.42,10-2.6,11.36c-1.65,1.88-4.1,2.79-7.5,2.79
			c-1.79,0-4.13-0.25-5.1-1.46c-0.53-0.66-1.42-2.48-1.42-7.22v-22.71v-3h-3h-16.21h-3v3v25.34c0,8.19,2.02,14.66,6.02,19.22
			c4.1,4.68,9.77,7.05,16.86,7.05c5.59,0,10.26-1.69,13.9-5.03c0.73-0.67,1.41-1.38,2.04-2.14v3.22v3h3h16.11h3v-3v-47.67V297.58
			L2900.34,297.58z"/>
	</g>
	<g>
		<path class="st2" d="M2929.37,350.7c-8.64,0-15.29-1.63-19.77-4.85c-4.64-3.33-6.99-8.32-6.99-14.83v-1.5h17.97l-3.39-0.92
			c-3.46-0.86-6.53-2.47-9.09-4.76c-2.71-2.42-4.08-5.81-4.08-10.07c0-5.11,2.17-9.07,6.45-11.77c4.06-2.56,9.75-3.86,16.91-3.86
			c7.88,0,14.15,1.58,18.66,4.69c4.68,3.24,7.05,8.03,7.05,14.24v1.5h-15.92l0.64,0.15c4.66,1.12,8.49,2.88,11.39,5.24
			c3.09,2.52,4.65,6.17,4.65,10.82c0,5.23-2.17,9.27-6.44,12C2943.36,349.38,2937.29,350.7,2929.37,350.7z M2921.83,331.02
			c0,1.89,0.53,3.18,1.63,3.96c1.24,0.88,3.36,1.33,6.3,1.33c2.5,0,3.66-0.34,4.19-0.62c0.51-0.27,0.71-0.6,0.71-1.17
			c0-0.3,0-1.2-2.46-1.85l-10.37-2.81V331.02z M2927.49,312.45c-1.62,0-4.34,0.2-4.34,1.52c0,0.75,1.34,1.54,3.59,2.13l7.26,1.72
			v-0.74c0-1.6-0.44-2.72-1.35-3.43C2931.63,312.85,2929.89,312.45,2927.49,312.45z"/>
		<path class="st3" d="M2927.39,299.64c7.6,0,13.54,1.48,17.81,4.43c4.27,2.95,6.41,7.29,6.41,13h-16.11c0-2.07-0.64-3.61-1.93-4.61
			c-1.29-1-3.31-1.51-6.08-1.51c-3.9,0-5.84,1-5.84,3.02c0,1.57,1.57,2.76,4.71,3.58l11.12,2.64c4.46,1.07,8.06,2.72,10.79,4.94
			c2.73,2.23,4.1,5.45,4.1,9.66c0,4.71-1.92,8.29-5.75,10.74c-3.83,2.45-9.58,3.67-17.24,3.67c-8.36,0-14.65-1.52-18.89-4.57
			c-4.24-3.05-6.36-7.59-6.36-13.62h16.21c0,2.39,0.75,4.11,2.26,5.18c1.51,1.07,3.89,1.6,7.16,1.6c2.26,0,3.89-0.26,4.9-0.8
			c1-0.53,1.51-1.37,1.51-2.49c0-1.57-1.19-2.67-3.58-3.3l-14.98-4.05c-3.27-0.82-6.09-2.29-8.48-4.43
			c-2.39-2.14-3.58-5.12-3.58-8.95c0-4.59,1.92-8.09,5.75-10.51C2915.11,300.85,2920.48,299.64,2927.39,299.64 M2927.39,296.64
			c-7.45,0-13.41,1.38-17.71,4.09c-4.68,2.95-7.15,7.46-7.15,13.04c0,4.71,1.54,8.47,4.58,11.19c1.33,1.19,2.8,2.21,4.38,3.05h-7.37
			h-3v3c0,7.02,2.56,12.42,7.61,16.05c4.81,3.45,11.56,5.13,20.64,5.13c8.32,0,14.49-1.36,18.86-4.14
			c4.67-2.98,7.13-7.57,7.13-13.27c0-5.13-1.75-9.16-5.2-11.98c-1.25-1.02-2.66-1.93-4.21-2.73h5.66h3v-3
			c0-6.73-2.59-11.94-7.7-15.47C2942.14,298.31,2935.58,296.64,2927.39,296.64L2927.39,296.64z M2925.45,314.09
			c0.47-0.08,1.13-0.14,2.04-0.14c2.71,0,3.81,0.55,4.23,0.87c0.15,0.11,0.47,0.36,0.65,1.06l-5.29-1.25
			C2926.36,314.44,2925.83,314.25,2925.45,314.09L2925.45,314.09z M2929.75,334.8c-3.43,0-4.87-0.66-5.43-1.05
			c-0.23-0.17-0.79-0.56-0.95-1.93l8.42,2.28c0.52,0.14,0.86,0.27,1.09,0.39C2932.42,334.62,2931.49,334.8,2929.75,334.8
			L2929.75,334.8z"/>
	</g>
</g>
</svg>
